<?xml version="1.0" encoding="UTF-8" standalone="no"?>
<!-- Created with Inkscape (http://www.inkscape.org/) -->

<svg
   xmlns:dc="http://purl.org/dc/elements/1.1/"
   xmlns:cc="http://creativecommons.org/ns#"
   xmlns:rdf="http://www.w3.org/1999/02/22-rdf-syntax-ns#"
   xmlns:svg="http://www.w3.org/2000/svg"
   xmlns="http://www.w3.org/2000/svg"
   xmlns:sodipodi="http://sodipodi.sourceforge.net/DTD/sodipodi-0.dtd"
   xmlns:inkscape="http://www.inkscape.org/namespaces/inkscape"
   id="svg2046"
   sodipodi:docname="error.svg"
   viewBox="0 0 159.61 159.61"
   sodipodi:version="0.32"
   version="1.0"
   inkscape:version="0.91 r13725">
  <metadata
     id="metadata18">
    <rdf:RDF>
      <cc:Work
         rdf:about="">
        <dc:format>image/svg+xml</dc:format>
        <dc:type
           rdf:resource="http://purl.org/dc/dcmitype/StillImage" />
        <dc:title></dc:title>
      </cc:Work>
    </rdf:RDF>
  </metadata>
  <defs
     id="defs2048">
    <linearGradient
       id="linearGradient2109"
       y2="553.74"
       gradientUnits="userSpaceOnUse"
       x2="380.68"
       gradientTransform="matrix(.31227 0 0 .32049 127.55 434.38)"
       y1="296.37"
       x1="264.58"
       inkscape:collect="always">
      <stop
         id="stop5192"
         style="stop-color:#ffffff"
         offset="0" />
      <stop
         id="stop5194"
         style="stop-color:#ff0000"
         offset="1" />
    </linearGradient>
    <linearGradient
       id="linearGradient2107"
       y2="427.54"
       gradientUnits="userSpaceOnUse"
       x2="272.03"
       gradientTransform="matrix(-.30163 .080822 -.082949 -.30957 402.86 730.11)"
       y1="262.87"
       x1="249.48"
       inkscape:collect="always">
      <stop
         id="stop5199"
         style="stop-color:#ffffff"
         offset="0" />
      <stop
         id="stop5201"
         style="stop-color:#ff0000"
         offset="1" />
    </linearGradient>
  </defs>
  <sodipodi:namedview
     id="base"
     bordercolor="#666666"
     inkscape:pageshadow="2"
     guidetolerance="10"
     pagecolor="#ffffff"
     gridtolerance="10000"
     inkscape:window-height="569"
     inkscape:zoom="1.4"
     objecttolerance="10"
     borderopacity="1.0"
     inkscape:current-layer="layer1"
     inkscape:cx="-59.146207"
     inkscape:cy="82.99359"
     inkscape:window-y="124"
     inkscape:window-x="606"
     inkscape:window-width="853"
     inkscape:pageopacity="0.0"
     inkscape:document-units="px"
     showgrid="false"
     inkscape:window-maximized="0" />
  <g
     id="layer1"
     inkscape:label="Layer 1"
     inkscape:groupmode="layer"
     transform="translate(-311.62 -429.7)">
    <g
       id="g2100"
       transform="matrix(.9 0 0 .9 170.44 -31.113)">
      <path
         id="path2174"
         sodipodi:rx="250"
         sodipodi:ry="250"
         style="fill-rule:evenodd;stroke:#cb0000;stroke-width:20.128;fill:red"
         sodipodi:type="arc"
         d="m 634.28571,559.50507 a 250,250 0 0 1 -250,250 250,250 0 0 1 -250,-250 250,250 0 0 1 250,-250 250,250 0 0 1 250,250 z"
         transform="matrix(.30686 0 0 .30686 127.62 429)"
         sodipodi:cy="559.50507"
         sodipodi:cx="384.28571" />
      <path
         id="path2540"
         sodipodi:nodetypes="cccc"
         style="fill-rule:evenodd;fill:url(#linearGradient2107)"
         d="m264.19 668.93c19.05-5.1 34.17-17.66 43.23-33.82 14.71-34.82-40.17 46.7-85.49 31.89 13.17 4.83 27.81 5.8 42.26 1.93z" />
      <path
         id="path2197"
         sodipodi:nodetypes="ccccc"
         style="fill-rule:evenodd;fill:url(#linearGradient2109)"
         d="m245.66 529.36c-39.44 0-71.44 32.85-71.44 73.32 0 5.48 0.6 10.81 1.71 15.94 39.21-75.47 81.45-27.96 135.91-43.55-10.64-26.8-36.26-45.71-66.18-45.71z" />
      <path
         id="text2705"
         sodipodi:nodetypes="ccccccccccccc"
         style="opacity:.73529;fill:white"
         d="m267.42 640.04l-21.68-21.68-21.88 21.88-17.87-17.87 21.88-21.89-21.68-21.68 17.4-17.4 21.68 21.68 21.95-21.95 17.88 17.88-21.96 21.95 21.68 21.68-17.4 17.4" />
      <path
         id="text2713"
         style="fill:white"
         d="m267.3 637.01l-21.59-21.59-21.76 21.76-14.9-14.91 21.76-21.75-21.59-21.59 14.51-14.51 21.58 21.59 21.82-21.81 14.9 14.9-21.81 21.81 21.58 21.59-14.5 14.51" />
    </g>
  </g>
</svg>
