<?xml version="1.0" encoding="UTF-8" standalone="no"?>
<svg
   xmlns:dc="http://purl.org/dc/elements/1.1/"
   xmlns:rdf="http://www.w3.org/1999/02/22-rdf-syntax-ns#"
   xmlns:svg="http://www.w3.org/2000/svg"
   xmlns="http://www.w3.org/2000/svg"
   xmlns:xlink="http://www.w3.org/1999/xlink"
   height="48"
   width="48"
   version="1.1"
   viewBox="0 0 48 48"
   id="svg2">
  <defs
     id="defs4">
    <radialGradient
       r="13.996"
       gradientTransform="matrix(0.52225,-0.30947,0.74888,1.2638,-6.4834959,-3.349)"
       cx="9.7785997"
       cy="29.747999"
       gradientUnits="userSpaceOnUse"
       id="radialGradient3909">
      <stop
         offset="0"
         style="stop-color:#000000;stop-opacity:.15686"
         id="stop3863" />
      <stop
         offset="1"
         style="stop-color:#000000;stop-opacity:0"
         id="stop3865" />
    </radialGradient>
    <radialGradient
       r="189.78999"
       gradientTransform="matrix(0.04118333,-0.04314943,0.07565304,0.07220486,-48.603152,3.0413626)"
       cx="800.28998"
       cy="582.92999"
       gradientUnits="userSpaceOnUse"
       id="radialGradient3929">
      <stop
         offset="0"
         style="stop-color:#ffffff;stop-opacity:.78431"
         id="stop3845" />
      <stop
         offset="0.3"
         style="stop-color:#ffffff;stop-opacity:.54902"
         id="stop3847" />
      <stop
         offset="0.6"
         style="stop-color:#ffffff;stop-opacity:.23529"
         id="stop3849" />
      <stop
         offset="1"
         style="stop-color:#ffffff;stop-opacity:0"
         id="stop3841" />
    </radialGradient>
  </defs>
  <g
     id="layer2">
    <path
       id="svg_2"
       d="m 23.855723,2.0058594 c -0.84108,-0.030813 -1.707766,0.011839 -2.587891,0.1445312 -4.3057,0.6492 -7.513987,3.1198125 -9.429687,6.1328125 -1.1649,1.8321999 -1.9721439,4.0722349 -2.0273439,6.8652349 -0.0566,2.857999 0.8325869,5.06189 1.9296869,6.96289 0.5487,0.95 1.042282,1.917984 1.613282,2.833984 1.7104,2.743 3.558596,5.354594 5.154296,8.183594 2.151,3.814 3.926594,7.93 4.933594,12.875 l 0.002,0 c 1.4573,-7.503 4.784378,-12.978356 8.330079,-18.347656 1.190399,-1.8024 2.376065,-3.604112 3.322265,-5.570312 0.48469,-1.007101 1.030521,-1.950026 1.369141,-3.078126 0.33472,-1.114599 0.571939,-2.457303 0.537109,-3.908203 -0.0678,-2.8319 -0.877534,-5.004097 -2.052734,-6.8417965 -1.1257,-1.7607 -2.606931,-3.2546469 -4.519531,-4.3730469 C 28.674641,2.8582781 26.378962,2.0982988 23.855723,2.0058594 Z M 23.37916,4.8300781 A 10.491803,10.491803 0 0 1 33.871348,15.322266 10.491803,10.491803 0 0 1 23.37916,25.814453 10.491803,10.491803 0 0 1 12.886973,15.322266 10.491803,10.491803 0 0 1 23.37916,4.8300781 Z"
       style="fill:#f77935;fill-rule:evenodd;stroke:#d35009;stroke-width:0.75;stroke-miterlimit:10" />
    <g
       transform="matrix(0.12857163,0,0,0.12857163,14.715547,6.0200129)"
       id="g3">
      <path
         id="path5"
         style="fill:#ffd500"
         d="m 121.35,119.2 c 0,9.178 -9.696,8.178 -15.906,8.178 l -28.114,0 -54.556,0 c -7.863,0 -9.524,-5.594 -10.273,-12.168 C 11.375,105.341 10.249,95.47 9.125,85.599 8.602,81.009 8.077,76.419 7.554,71.829 7.357,70.094 7.627,66.923 6.814,65.339 6.814,63.904 2.681,62.308 1.717,61.577 -0.627,59.799 0.839,57.601 1.745,55.309 2.833,52.556 5.538,44.204 9.393,44.204 l 104.52,0 c 3.077,0 8.637,-1.143 11.564,0.18 4.584,2.072 7.552,10.749 8.81,15.181 0.792,2.732 -5.934,3.79 -6.317,6.833 -2.163,17.248 -4.327,34.495 -6.49,51.743 -0.03,0.36 -0.07,0.71 -0.12,1.06" />
      <path
         id="path7"
         style="fill:#ff9900"
         d="m 9.202,43.4 c -4.496,0 -7.484,9.631 -8.681,12.859 -2.546,6.868 5.038,5.123 5.579,9.869 0.945,8.298 1.889,16.594 2.833,24.893 1.016,8.92 2.031,17.842 3.045,26.761 0.854,7.502 5.135,10.404 12.193,10.404 l 57.129,0 26.386,0 c 6.889,0 13.431,-0.574 14.476,-8.927 2.115,-16.848 4.229,-33.696 6.344,-50.543 0.464,-3.71 0.724,-3.5 4.207,-5.799 5.248,-3.462 -1.011,-12.501 -3.738,-16.239 -3.163,-4.335 -7.129,-3.278 -11.931,-3.278 l -106.83,0 c -0.342,0.009 -0.679,0.009 -1.018,0.009 m 4.558,75.8 C 11.863,102.559 9.972,85.906 8.081,69.257 7.838,67.11 8.106,64.739 6.123,63.408 2.406,60.913 0.5,60.836 2.264,56.205 3.592,52.718 5.166,48.549 7.836,45.835 9.934,43.704 16.592,45.033 19.191,45.033 l 105.2,0 c 3.146,0 5.587,6.275 6.66,8.523 1.312,2.746 3.793,6.033 0.644,8.086 -1.5,0.979 -4.179,1.825 -4.438,3.88 -0.948,7.568 -1.899,15.137 -2.852,22.705 -1.185,9.437 -2.369,18.872 -3.555,28.308 -0.763,6.071 -3.094,10.03 -9.747,10.03 l -54.135,0 -28.115,0 c -5.693,0 -15.1,1.16 -15.1,-7.36" />
      <path
         id="path9"
         style="fill:#ffb907"
         d="m 112.4,63.772 -80.349,0 -9.494,0 c -8.721,0 -6.791,8.896 -6.151,14.338 0.989,8.44 1.979,16.88 2.969,25.319 0.501,4.284 0.045,13.424 3.375,16.754 -2.842,-6.927 -2.218,-16.956 -3.093,-24.274 -0.585,-4.896 -1.17,-9.793 -1.756,-14.689 -0.346,-2.89 -1.426,-6.479 0.22,-9.157 2.931,-4.769 11.832,-3.204 16.526,-3.204 l 30.109,0 31.585,0 c 4.732,0 9.918,-0.607 14.624,0 10.512,0 5.607,15.388 4.845,21.179 -1.188,8.994 -2.374,17.987 -3.563,26.979 -0.131,0.999 -0.24,2.31 -0.579,3.138 2.344,-2.373 2.258,-7.075 2.666,-10.25 0.784,-6.073 1.567,-12.148 2.352,-18.223 0.8,-6.19 7.47,-27.905 -4.28,-27.905" />
      <path
         id="path11"
         style="fill:#ff9900"
         d="m 111.59,110.66 c 0,10.254 -21.849,6.697 -27.879,6.697 l -45.086,0 -9.062,0 c -6.956,0 -6.827,-7.551 -7.395,-12.533 -1.375,-12.08 -2.752,-24.159 -4.128,-36.241 -1.557,6.283 1.333,15.384 2.05,21.67 0.906,7.953 1.813,15.903 2.719,23.856 0.911,7.998 8.126,6.911 14.042,6.911 l 29.671,0 29.262,0 c 6.146,0 14.766,1.601 15.812,-6.75 0.948,-7.557 1.895,-15.114 2.842,-22.672 0.616,-4.912 1.231,-9.822 1.847,-14.735 0.321,-2.568 1.279,-5.755 0.582,-8.339 -1.76,14.032 -3.52,28.077 -5.28,42.126" />
      <path
         id="path13"
         style="fill:#ffb907"
         d="m 124.75,50.803 c 2.619,4.774 -10.045,3.971 -12.319,3.971 l -25.977,0 -61.471,0 c -3.563,0 -11.156,1.191 -14.41,-0.798 -4.066,-2.484 2.239,-6.016 4.441,-6.016 l 4.238,0 56.697,0 33.355,0 c 3.65,-10e-4 13.85,-1.502 15.45,2.843" />
      <g
         id="g15">
        <defs
           id="defs17">
          <path
             id="XMLID_1_"
             d="m 120.5,46.259 -100.28,0 -5.518,0 c -1.471,0 -1.871,1.7 -0.202,1.7 l 16,0 63.625,0 20.285,0 4.988,0 c 1.19,0 2.99,-1.7 1.1,-1.7" />
        </defs>
        <use
           height="100%"
           width="100%"
           y="0"
           x="0"
           id="use20"
           style="fill:#ff9900"
           xlink:href="#XMLID_1_" />
        <clipPath
           id="XMLID_5_">
          <use
             height="100%"
             width="100%"
             y="0"
             x="0"
             id="use23"
             xlink:href="#XMLID_1_" />
        </clipPath>
        <path
           id="path25"
           style="fill:#ff9900"
           d="m 13.291,47.959 100.68,0 6.308,0 c 1.296,0 1.708,-1.7 0.719,-1.7 l -15.767,0 -63.515,0 -21.034,0 c -1.934,0 -8.169,-1.376 -7.39,1.7"
           clip-path="url(#XMLID_5_)" />
      </g>
      <path
         id="path27"
         style="fill:#ff9900"
         d="m 123.84,54.773 -4.543,0 -104.31,0 c -0.392,0 -6.697,-0.315 -4.841,1.452 0.439,0.418 1.462,0.248 1.986,0.248 l 10.582,0 40.495,0 42.964,0 13.666,0 3.462,0 c 1.16,10e-4 2.19,-1.7 0.53,-1.7" />
      <path
         id="path29"
         style="fill:#ff9900"
         d="m 119.3,54.773 -104.31,0 104.31,0" />
      <path
         id="path31"
         style="fill:#ff9900"
         d="m 33.562,59.742 -13.279,0 c -2.479,0 -12.115,-1.616 -14.047,0.316 -3.966,3.966 11.903,3.215 12.554,3.215 l 9.503,0 c 3.383,0 2.249,-2.051 5.269,-3.531 m 63.519,0 -59.389,0 c 2.068,1.011 1.902,3.532 4.076,3.532 l 5.55,0 19.391,0 19.79,0 6.05,0 c 2.664,-10e-4 2.065,-2.322 4.532,-3.532 m 31.229,0 -27.101,0 c 2.94,1.439 1.888,3.532 5.163,3.532 l 10.552,0 9.212,0 c 2.27,-10e-4 4.62,-3.532 2.18,-3.532" />
      <path
         id="path33"
         style="fill:#bf8a05"
         d="m 40.536,68.858 -9.817,0 c 1.959,4.659 7.857,4.659 9.817,0 m 0.146,-5.585 c -1.625,0 -9.888,-0.852 -10.267,0.499 1.545,0 10.507,0.187 10.267,-0.499 m -5.054,-4.015 c -0.689,0.16 -1.377,0.323 -2.066,0.483 l 4.13,0 c -0.688,-0.16 -1.375,-0.323 -2.064,-0.483" />
      <path
         id="path35"
         style="fill:#988904"
         d="m 40.839,63.772 c -4.12,0 -11.744,-2.271 -10.555,3.664 0.498,2.481 3.88,1.422 6.009,1.422 3.88,0 5.958,-0.023 4.546,-5.086" />
      <path
         id="path37"
         style="fill:#8cb211"
         d="m 37.692,59.742 c -3.324,0 -5.771,-0.256 -7.118,3.532 l 10.107,0 c -0.526,-1.482 -1.555,-2.831 -2.989,-3.532" />
      <path
         id="path39"
         style="fill:#bf8a05"
         d="m 104.05,68.858 -9.816,0 c 1.961,4.656 7.866,4.661 9.816,0 m 0.15,-5.585 c -1.616,0 -9.901,-0.844 -10.265,0.499 1.547,0 10.505,0.187 10.265,-0.499 m -5.053,-4.015 c -0.688,0.16 -1.378,0.323 -2.066,0.483 l 4.131,0 c -0.69,-0.16 -1.375,-0.323 -2.063,-0.483" />
      <path
         id="path41"
         style="fill:#988904"
         d="m 104.36,63.772 c -4.118,0 -11.744,-2.271 -10.554,3.664 0.497,2.481 3.88,1.422 6.01,1.422 3.874,0 5.954,-0.023 4.544,-5.086" />
      <path
         id="path43"
         style="fill:#8cb211"
         d="m 101.21,59.742 c -3.323,0 -5.771,-0.256 -7.118,3.532 l 10.107,0 c -0.53,-1.482 -1.55,-2.831 -2.99,-3.532" />
      <path
         id="path45"
         style="fill:#77aae8"
         d="M 101.12,64.059 C 95.473,66.867 93.504,59.434 91.676,55.76 88.2,48.775 84.728,41.792 81.253,34.808 79.211,30.709 62.535,5.775 71.082,1.529 c 4.6,-3.763 17.407,26.453 18.692,29.037 3.473,6.984 6.947,13.969 10.421,20.954 1.82,3.675 6.56,9.732 0.92,12.539" />
      <radialGradient
         id="XMLID_6_"
         gradientUnits="userSpaceOnUse"
         cy="466.84"
         cx="-246.17999"
         gradientTransform="matrix(84.892,8.4807,8.4807,-84.892,17009,41685)"
         r="1.6287">
        <stop
           id="stop48"
           style="stop-color:#8BBBFF"
           offset="0" />
        <stop
           id="stop50"
           style="stop-color:#0D56AC"
           offset="1" />
      </radialGradient>
      <path
         id="path52"
         style="fill:url(#XMLID_6_)"
         d="m 70.566,0.899 c -9.161,4.47 7.166,28.665 9.354,33.063 3.527,7.093 7.057,14.185 10.585,21.278 1.858,3.738 3.815,11.216 9.295,10.124 7.896,-1.575 4.074,-8.277 1.938,-12.575 C 98.393,46.067 95.049,39.345 91.706,32.622 88.294,25.762 84.882,18.902 81.47,12.041 79.761,8.614 75.44,-3.097 70.564,0.899 m 25.36,61.587 C 91.275,53.138 86.624,43.791 81.975,34.444 78.964,28.39 75.953,22.336 72.942,16.281 71.414,13.212 69.144,10.122 69.556,6.552 c 0.324,-2.816 2.48,-6.797 5.261,-3.427 2.329,2.824 2.738,6.682 4.405,9.968 3.613,7.124 7.292,14.214 10.971,21.305 3.498,6.738 7.004,13.471 10.516,20.201 0.752,1.44 1.504,2.882 2.258,4.322 1.81,3.459 -5.283,7.094 -7.044,3.565 m 5.554,2.302" />
      <path
         id="path54"
         style="fill:#7ed8fc"
         d="m 74.978,6.221 c -0.187,1.857 2.01,4.949 2.77,6.521 2.034,4.219 4.154,8.396 6.267,12.576 0.878,1.737 7.712,18.643 9.001,18.771 -1.44,-0.145 -4.151,-6.232 -4.789,-7.29 C 85.268,31.88 82.368,26.923 79.415,21.999 76.99,17.956 74.616,13.822 71.855,9.993 68.499,5.339 75.669,-0.705 74.978,6.221" />
      <path
         id="path56"
         style="fill:#77aae8"
         d="M 34.415,64.059 C 40.062,66.867 42.031,59.434 43.86,55.76 47.335,48.775 50.808,41.792 54.282,34.808 56.319,30.71 72.995,5.775 64.449,1.53 59.85,-2.233 47.042,27.982 45.757,30.566 42.283,37.55 38.808,44.535 35.336,51.52 c -1.83,3.675 -6.57,9.732 -0.921,12.539" />
      <radialGradient
         id="XMLID_7_"
         gradientUnits="userSpaceOnUse"
         cy="468.26001"
         cx="-231.95"
         gradientTransform="matrix(-84.893,8.4808,-8.4808,-84.893,-15654,41685)"
         r="1.6294">
        <stop
           id="stop59"
           style="stop-color:#8BBBFF"
           offset="0" />
        <stop
           id="stop61"
           style="stop-color:#0D56AC"
           offset="1" />
      </radialGradient>
      <path
         id="path63"
         style="fill:url(#XMLID_7_)"
         d="M 62.227,0.147 C 58.259,1 55.341,9.471 53.645,12.88 c -3.474,6.984 -6.948,13.968 -10.421,20.952 -3.268,6.569 -6.536,13.141 -9.804,19.71 -0.755,1.521 -1.511,3.039 -2.266,4.558 -2.238,4.5 3.785,8.589 7.75,7.027 3.293,-1.297 5.194,-8.022 6.578,-10.804 3.575,-7.187 7.15,-14.375 10.727,-21.561 3.095,-6.221 6.189,-12.444 9.284,-18.665 1.845,-3.712 4.267,-15.548 -3.266,-13.95 m -27.45,63.184 c -6.542,-3.18 6.922,-22.669 9.414,-27.566 2.987,-5.869 5.999,-11.729 9.117,-17.533 1.239,-2.306 2.522,-4.589 3.734,-6.91 1.165,-2.228 1.381,-4.678 2.654,-6.751 2.689,-4.373 5.75,-2.578 6.275,1.981 0.412,3.571 -1.858,6.661 -3.386,9.729 -3.21,6.458 -6.423,12.915 -9.636,19.372 -3.272,6.58 -6.547,13.161 -9.82,19.741 -1.569,3.161 -3.42,10.386 -8.352,7.937 m -0.726,1.457 z" />
      <path
         id="path65"
         style="fill:#7ed8fc"
         d="m 60.553,6.221 c 0.186,1.857 -2.01,4.949 -2.769,6.521 -2.036,4.219 -4.155,8.396 -6.268,12.576 -0.877,1.737 -7.712,18.643 -9,18.771 1.439,-0.145 4.15,-6.232 4.789,-7.29 2.959,-4.919 5.859,-9.876 8.812,-14.8 2.425,-4.043 4.799,-8.177 7.56,-12.006 3.354,-4.654 -3.816,-10.698 -3.124,-3.772" />
      <path
         id="path67"
         style="fill:#68a0f2"
         d="m 39.297,59.671 c 0,3.416 -5.292,3.416 -5.292,0 0,-3.416 5.292,-3.416 5.292,0" />
      <path
         id="path69"
         style="fill:#c3c2c4"
         d="m 38.482,59.671 c 0,2.37 -3.664,2.37 -3.664,0 0,-2.369 3.664,-2.369 3.664,0" />
      <path
         id="path71"
         style="fill:#e5e5e5"
         d="m 38.203,59.671 c 0,-0.705 -2.427,-1.134 -3.052,0.177 0.512,-1.074 3.052,-3.084 3.052,-0.177" />
      <path
         id="path73"
         style="fill:#68a0f2"
         d="m 101.65,59.671 c 0,3.416 -5.292,3.416 -5.292,0 0,-3.416 5.292,-3.416 5.292,0" />
      <path
         id="path75"
         style="fill:#c3c2c4"
         d="m 100.84,59.671 c 0,2.37 -3.664,2.37 -3.664,0 -0.002,-2.369 3.664,-2.369 3.664,0" />
      <path
         id="path77"
         style="fill:#e5e5e5"
         d="m 100.56,59.671 c 0,-0.705 -2.427,-1.134 -3.051,0.177 0.508,-1.074 3.051,-3.084 3.051,-0.177" />
    </g>
  </g>
  <g
     style="opacity:0.7"
     id="layer1">
    <path
       d="m 23.442504,46.004 c -1.007,-4.945 -2.784,-9.061 -4.935,-12.875 -1.5957,-2.829 -3.4443,-5.441 -5.1547,-8.184 -0.571,-0.91587 -1.0638,-1.8835 -1.6124,-2.8339 -1.0971,-1.9006 -1.9865999,-4.1044 -1.9300999,-6.9628 0.05522,-2.7929 0.8629899,-5.0332 2.0277999,-6.8651 1.9158,-3.013 5.1247,-5.4831 9.4303,-6.1322 3.5205,-0.53077 6.8212,0.36596 9.1616,1.7346 1.9126,1.1184 3.394,2.6125 4.5197,4.3732 1.1752,1.8377 1.9844,4.0088 2.0522,6.8407 0.03483,1.4509 -0.2027,2.7944 -0.53742,3.909 -0.33862,1.1281 -0.88331,2.0711 -1.368,3.0782 -0.9462,1.9662 -2.1323,3.7677 -3.3227,5.5701 -3.5457,5.3693 -6.8737,10.845 -8.331,18.348 z"
       stroke-miterlimit="10"
       style="fill:url(#radialGradient3909);fill-rule:evenodd;stroke-miterlimit:10"
       id="use3905" />
    <circle
       r="13.088112"
       cy="15.464109"
       cx="23.406809"
       style="fill:url(#radialGradient3929);fill-rule:evenodd"
       id="svg_4" />
  </g>
</svg>
